<svg width="220" height="1437" viewBox="0 0 220 1437" fill="none" xmlns="http://www.w3.org/2000/svg">
<path d="M176.321 3C87.1161 155.306 81.5385 277.929 72.6027 461.162C59.8441 722.784 254.4 860.887 206.447 1118.39C183.272 1242.84 90.2477 1421 90.2477 1421" stroke="black" stroke-width="10" stroke-dasharray="40 40"/>
<path fill-rule="evenodd" clip-rule="evenodd" d="M57.715 1302.21C41.4855 1302.21 7.77613 1319.54 16.1781 1366.03C24.5801 1412.52 52.4888 1424.08 84.948 1425.17C107.78 1425.17 144.916 1416.1 153.719 1367.96C161.507 1325.37 135.288 1305.24 118.508 1303.31L111.631 1310.47C123.699 1317.09 129.136 1318.99 136.44 1317.61C135.032 1323.6 128.411 1327.52 122.084 1329.45C115.757 1331.37 106.897 1330.44 96.7768 1325.6C94.32 1334.72 90.8424 1339.73 81.424 1348.42C77.5728 1341.27 75.3722 1336.6 75.3722 1326.69C64.9675 1331.86 59.0747 1333.59 50.0131 1329.45C43.3073 1326.39 39.0098 1321.2 37.0843 1315.69C37.0843 1315.69 38.7864 1317.89 44.8382 1317.89C47.405 1317.89 51.7152 1316.34 54.7411 1314.31C58.8525 1311.56 64.0939 1309.09 64.0939 1309.09C64.0939 1309.09 59.6926 1303.59 57.715 1302.21ZM138.641 1338.52C142.492 1339.62 143.624 1343.79 144.417 1348.15C144.968 1351.18 144.862 1356.1 144.417 1358.32C144.317 1358.83 144.225 1359.35 144.131 1359.89L144.13 1359.89L144.13 1359.89C143.711 1362.29 143.239 1364.98 141.667 1367.68C139.705 1371.04 137.972 1373.38 135.065 1374.55C133.698 1375.11 131.741 1371.58 133.414 1368.23C135.065 1364.93 134.747 1353.1 133.414 1347.32C132.081 1341.54 135.716 1337.69 138.641 1338.52ZM129.013 1380.33C125.437 1382.86 126.279 1387.94 129.838 1388.58C132.864 1389.13 135.89 1384.73 135.065 1381.98C134.336 1379.55 133.306 1377.3 129.013 1380.33Z" fill="#7E1701"/>
<path d="M99.0294 1279.1H91.6023C85.8252 1285.16 84.1747 1293.41 84.7249 1306.61C75.0971 1294.78 68.2201 1298.36 59.4175 1292.86C62.4434 1310.19 74.822 1307.44 77.2977 1311.01C62.7184 1309.36 56.045 1320.86 46.4887 1322.02C45.3845 1322.44 59.6922 1336.32 81.4239 1318.72C78.4639 1327.66 78.6158 1332.79 82.5246 1342.1C90.9971 1334.03 93.5474 1329.13 91.8773 1319.27C99.8803 1323.78 109.207 1326.69 114.434 1326.69C118.56 1326.69 123.661 1325.2 128.188 1322.29C128.188 1322.29 121.311 1320.09 113.884 1315.96C106.457 1311.84 98.2042 1312.39 98.2042 1312.39C99.3045 1311.01 102.715 1309.69 104.531 1309.36C110.583 1308.26 117.185 1301.11 117.46 1293.68C113.334 1295.33 108.27 1295.93 103.706 1296.98C100.13 1297.81 93.686 1300.87 89.9518 1306.61C89.9478 1295.82 92.3619 1289.8 99.0294 1279.1Z" fill="#7E1701"/>
</svg>
