<svg width="567" height="435" viewBox="0 0 567 435" fill="none" xmlns="http://www.w3.org/2000/svg">
<path d="M496.285 86.9212L486.923 85.6379C478.596 92.2721 475.091 102.395 473.504 119.142C463.411 102.561 454.125 105.883 443.979 97.4232C444.801 119.803 460.879 118.472 463.382 123.41C445.29 118.809 434.892 132.159 422.647 131.964C421.183 132.307 436.82 152.285 467.253 133.837C461.977 144.608 461.284 151.098 464.603 163.516C476.675 154.808 480.737 149.062 480.334 136.337C489.643 143.413 500.896 148.698 507.484 149.602C512.685 150.314 519.373 149.311 525.581 146.427C525.581 146.427 517.293 142.463 508.644 135.976C499.994 129.489 489.497 128.757 489.497 128.757C491.121 127.212 495.649 126.137 497.995 126.034C505.813 125.692 515.37 117.812 516.999 108.493C511.513 109.862 505.027 109.74 499.092 110.28C494.442 110.702 485.791 113.446 480.093 120.046C481.951 106.434 486.034 99.2551 496.285 86.9212Z" fill="#7C0B0B"/>
<path fill-rule="evenodd" clip-rule="evenodd" d="M440.219 108.924C419.762 106.12 374.278 122.158 376.84 182.24C379.403 242.323 412.586 261.716 453.311 268.707C482.091 272.652 530.467 267.626 549.876 208.434C567.049 156.062 537.476 126.15 516.657 120.822L506.754 128.654C520.823 139.086 527.346 142.427 536.791 141.955C533.982 149.264 524.96 153.063 516.652 154.398C508.345 155.733 497.337 153.019 485.417 145.168C480.745 156.248 475.497 161.965 462.123 171.305C458.504 161.619 456.537 155.341 458.248 142.852C444.241 147.568 436.514 148.73 425.807 141.945C417.883 136.925 413.363 129.636 411.885 122.365C411.885 122.365 413.652 125.429 421.28 126.475C424.515 126.918 430.216 125.706 434.38 123.676C440.037 120.917 447.072 118.7 447.072 118.7C447.072 118.7 442.474 111.001 440.219 108.924ZM516.213 230.32C511.838 228.888 511.655 222.335 516.598 219.769C522.533 216.689 523.442 219.707 523.941 222.897C524.507 226.509 519.932 231.537 516.213 230.32ZM541.573 181.843C541.327 176.202 540.619 170.756 535.954 168.703C532.411 167.143 527.164 171.382 527.846 178.901C528.528 186.419 526.886 201.39 524.236 205.268C521.549 209.199 523.406 213.99 525.224 213.53C529.092 212.55 531.68 209.902 534.733 206C537.73 202.17 538.647 198.054 539.816 194.677C540.759 191.951 541.744 185.755 541.573 181.843Z" fill="#7C0B0B"/>
<path d="M135.483 49.6613L123.528 53.1862C117.101 65.6739 118.358 79.7471 125.507 100.75C104.4 86.2703 95.0274 95.293 78.2497 90.6107C91.3401 117.083 109.959 106.779 115.64 111.363C91.3914 115.624 86.1047 137.31 71.271 143.704C69.6947 144.91 99.3076 160.474 125.935 121.808C125.414 137.62 128.089 145.801 138.797 158.941C148.609 141.932 150.386 132.82 143.021 117.733C158.043 121.205 174.438 121.47 182.85 118.989C189.491 117.031 196.992 112.203 202.9 105.374C202.9 105.374 190.787 105.093 176.876 101.973C162.964 98.8532 149.942 103.656 149.942 103.656C151.061 100.919 155.925 97.1733 158.691 95.7801C167.909 91.136 175.143 76.4848 172.063 64.3933C166.204 69.0096 158.338 72.3742 151.491 76.2368C146.126 79.263 137.205 87.2462 133.92 98.2693C128.794 80.8912 129.823 70.046 135.483 49.6613Z" fill="#7C0B0B"/>
<path fill-rule="evenodd" clip-rule="evenodd" d="M79.9461 106.48C53.8241 114.183 7.78983 158.097 43.364 228.976C78.9382 299.855 129.339 305.216 182.103 291.575C218.852 280.74 274.32 248.504 265.654 166.802C257.987 94.5116 206.241 74.5449 178.319 79.4075L170.643 94.1892C193.206 99.1198 202.859 99.6065 213.964 93.9258C214.538 104.237 205.741 113.692 196.471 119.795C187.201 125.899 172.494 128.593 153.911 125.604C154.283 141.46 151.062 151.177 140.027 169.652C130.436 159.961 124.676 153.475 119.979 137.527C105.682 150.783 97.0167 156.363 80.4691 153.999C68.2234 152.251 58.8445 145.932 53.1357 137.985C53.1357 137.985 56.9171 140.715 66.6577 137.843C70.789 136.624 76.9906 132.08 80.9006 127.384C86.2132 121.003 93.4752 114.528 93.4752 114.528C93.4752 114.528 83.7815 107.757 79.9461 106.48ZM237.001 211.35C230.964 211.996 227.2 204.214 231.758 198.452C237.231 191.534 239.957 194.672 242.282 198.238C244.915 202.276 242.132 210.801 237.001 211.35ZM241.288 139.314C237.94 132.663 234.143 126.495 227.423 126.551C222.318 126.593 218.299 134.532 223.186 143.206C228.072 151.88 234.193 170.775 233.102 176.875C231.997 183.058 236.821 187.815 238.759 186.277C242.881 183.005 244.562 178.418 246.124 172.072C247.658 165.842 246.535 160.396 246.114 155.701C245.775 151.912 243.608 143.926 241.288 139.314Z" fill="#7C0B0B"/>
<path d="M311.827 4.55442L299.723 5.15731C290.799 15.4939 288.779 29.0838 290.747 50.5686C274.098 32.0634 263.181 38.4525 248.389 30.1964C254.726 58.2082 274.676 52.7181 279 58.348C255.108 56.8403 245.165 76.1321 229.685 78.7901C227.92 79.5702 252.363 101.042 286.35 70.572C282.252 85.3987 282.915 93.7432 290.04 108.608C303.193 94.7697 306.951 86.563 303.43 70.6205C316.838 77.3313 332.274 81.324 340.791 80.8998C347.516 80.5648 355.707 77.7136 362.848 72.6068C362.848 72.6068 351.463 69.5768 339.024 63.4518C326.586 57.3267 313.182 58.8936 313.182 58.8936C314.864 56.5617 320.315 54.1318 323.247 53.4462C333.02 51.1608 343.199 38.9631 343.044 26.8305C336.454 29.8566 328.251 31.2413 320.898 33.3293C315.137 34.9652 304.884 40.4748 299.265 50.1444C298.383 32.5477 301.828 22.5311 311.827 4.55442Z" fill="#7C0B0B"/>
<path fill-rule="evenodd" clip-rule="evenodd" d="M246.374 45.5842C219.926 46.902 166.398 77.9032 183.862 153.023C201.325 228.142 247.744 244.715 300.73 243.867C337.938 242.013 397.72 224.205 408.16 144.998C417.396 74.915 373.036 44.2286 345.535 42.451L334.908 54.671C355.112 64.4825 364.125 67.1463 375.917 64.3115C374.108 74.1897 363.637 81.1178 353.483 84.7711C343.328 88.4244 328.812 87.6142 311.928 80.546C308.664 95.619 303.403 104.069 288.76 119.013C281.904 107.664 277.938 100.217 277.135 84.0702C260.598 93.3367 251.135 96.6327 236.032 90.6214C224.856 86.1729 217.431 78.0586 213.847 69.2443C213.847 69.2443 216.799 72.6874 226.661 72.1962C230.844 71.9878 237.743 69.1081 242.509 65.5614C248.986 60.7424 257.327 56.2801 257.327 56.2801C257.327 56.2801 249.708 47.6668 246.374 45.5842ZM370.916 180.566C365.063 179.799 363.279 171.583 368.902 167.177C375.653 161.887 377.514 165.476 378.898 169.377C380.466 173.796 375.892 181.218 370.916 180.566ZM391.395 113.452C389.748 106.401 387.565 99.7041 381.2 98.2226C376.365 97.0974 370.756 103.684 373.397 112.999C376.037 122.314 377.515 141.572 375.093 147.088C372.637 152.68 376.113 158.278 378.296 157.267C382.938 155.115 385.573 151.163 388.497 145.521C391.367 139.983 391.547 134.578 392.22 130.044C392.764 126.385 392.537 118.341 391.395 113.452Z" fill="#7C0B0B"/>
<path d="M543.707 282.586V355.072H35.4323L35.4323 282.586H543.707Z" fill="#904D4D"/>
<path d="M543.707 210.1V282.586H35.4323L35.4323 210.1L543.707 210.1Z" fill="#904D4D"/>
<path d="M543.707 427.558V355.072H35.4323L35.4323 427.558H543.707Z" fill="#904D4D"/>
<path d="M543.707 355.072V427.558H35.4323L35.4323 355.072M543.707 355.072H35.4323M543.707 355.072V282.586M35.4323 355.072L35.4323 282.586M543.707 282.586H35.4323M543.707 282.586V210.1L35.4323 210.1L35.4323 282.586" stroke="black" stroke-width="3"/>
<path d="M61.3621 204.669V433H123.6V204.669H61.3621Z" fill="#904D4D" stroke="black" stroke-width="3"/>
<path d="M455.534 204.669V433H517.772V204.669H455.534Z" fill="#904D4D" stroke="black" stroke-width="3"/>
</svg>
