<svg width="193" height="193" viewBox="0 0 193 193" fill="none" xmlns="http://www.w3.org/2000/svg">
<path fill-rule="evenodd" clip-rule="evenodd" d="M161 115C161 80.8293 134.632 52.8171 101.134 50.1998C108.043 28.3628 122.62 7.58651 134 0H122C111.919 5.76064 96.6527 22.9286 88.8959 50.3838C56.3394 53.9226 31 81.5021 31 115C31 150.899 60.1015 180 96 180C131.899 180 161 150.899 161 115ZM59 17H72.8611C78.3423 20.1136 84.43 26.2458 91 34.9512L85.5366 49C77.5328 35.1055 66.9717 22.2831 59 17ZM143.697 112.385C144.433 118.34 146.319 123.658 149.906 119.547C156.737 111.72 145.56 76.8501 135.004 79.1046C131.162 79.9252 130.839 84.3116 135.004 88.5239C139.972 93.5472 143.076 107.361 143.697 112.385Z" fill="#7E1701"/>
</svg>
