<svg width="309" height="309" viewBox="0 0 309 309" fill="none" xmlns="http://www.w3.org/2000/svg">
<path fill-rule="evenodd" clip-rule="evenodd" d="M104.906 63.9995C75.406 63.9999 14.1343 95.5082 29.4061 180.008C44.678 264.507 95.4061 285.508 154.405 287.499C195.906 287.499 263.406 271.008 279.406 183.508C293.563 106.088 245.906 69.5078 215.406 66.0078L202.906 79.0078C224.842 91.0372 234.723 94.4986 248 91.9995C245.44 102.884 233.406 110.008 221.906 113.508C210.406 117.008 194.3 115.303 175.906 106.508C171.44 123.088 165.119 132.193 148 148C141 135 137 126.5 137 108.5C118.088 117.888 107.377 121.029 90.9061 113.508C78.7174 107.942 70.9061 98.5078 67.4061 88.5078C67.4061 88.5078 70.5 92.5 81.5 92.5C86.1655 92.5 94 89.6799 99.5 86C106.973 81 116.5 76.5 116.5 76.5C116.5 76.5 108.5 66.5 104.906 63.9995ZM252 130.001C259 132.001 261.058 139.569 262.5 147.501C263.5 153.001 263.307 161.957 262.5 165.997C262.317 166.915 262.15 167.866 261.979 168.845L261.978 168.846C261.215 173.203 260.358 178.102 257.5 183.001C253.935 189.112 250.784 193.361 245.5 195.497C243.016 196.501 239.459 190.084 242.5 184.001C245.5 178.001 244.923 156.504 242.5 146C240.077 135.496 246.683 128.482 252 130.001ZM234.5 205.997C228 210.585 229.53 219.819 236 220.997C241.5 221.997 247 213.997 245.5 208.997C244.176 204.582 242.304 200.488 234.5 205.997Z" fill="#7E1701"/>
<path d="M180.001 22H166.501C156 33 153 48 154 72C136.5 50.5 124 57 108 47C113.5 78.5 136 73.5 140.5 80C114 77 101.87 97.9017 84.5 100C82.4931 100.77 108.499 126 148 94C142.62 110.26 142.896 119.576 150.001 136.5C165.401 121.841 170.036 112.923 167.001 95C181.547 103.205 198.501 108.5 208.001 108.5C215.501 108.5 224.772 105.783 233.001 100.5C233.001 100.5 220.501 96.5 207.001 89C193.501 81.5 178.501 82.5 178.501 82.5C180.501 80 186.701 77.6 190.001 77C201.001 75 213.001 62 213.501 48.5C206.001 51.5 196.797 52.5854 188.501 54.5C182.001 56 170.288 61.5588 163.501 72C163.493 52.3838 167.881 41.4361 180.001 22Z" fill="#7E1701"/>
</svg>
