<svg width="514" height="476" viewBox="0 0 514 476" fill="none" xmlns="http://www.w3.org/2000/svg">
<g clip-path="url(#clip0_1835_665)">
<path fill-rule="evenodd" clip-rule="evenodd" d="M114.425 216.467C85.3738 221.59 30.5043 263.26 60.2173 343.824C89.9304 424.388 143.535 436.26 201.983 427.976C242.854 420.77 306.464 392.808 307.027 303.858C307.525 225.156 254.24 197.408 223.596 199.257L213.543 214.23C237.234 222.268 247.567 223.961 260.208 219.194C259.577 230.357 248.963 239.463 238.245 244.907C227.528 250.35 211.37 251.468 191.729 246.001C190.21 263.105 185.566 273.169 171.451 291.708C162.3 280.121 156.885 272.445 153.759 254.718C136.765 267.248 126.762 272.201 109.235 267.655C96.2654 264.29 86.9345 256.355 81.7512 247.115C81.7512 247.115 85.4913 250.509 96.3242 248.599C100.919 247.789 108.145 243.651 112.922 239.072C119.413 232.851 128.014 226.765 128.014 226.765C128.014 226.765 118.399 218.306 114.425 216.467ZM270.746 255.924C277.987 256.677 281.328 263.773 284.125 271.334C286.065 276.577 287.43 285.431 287.337 289.549C287.316 290.485 287.317 291.451 287.318 292.445L287.318 292.446C287.323 296.869 287.329 301.843 285.366 307.163C282.916 313.801 280.551 318.532 275.718 321.553C273.446 322.973 268.828 317.271 270.767 310.753C272.68 304.323 268.378 283.253 264.168 273.329C259.959 263.405 265.246 255.351 270.746 255.924ZM266.708 333.804C261.104 339.451 264.214 348.279 270.79 348.315C276.38 348.345 280.408 339.512 278.062 334.848C275.991 330.73 273.437 327.023 266.708 333.804Z" fill="#7E1701"/>
<path d="M181.086 162.066L167.791 164.41C159.36 177.067 159.011 192.36 164.163 215.821C143.196 197.687 132.014 206.259 114.521 199.189C125.407 229.255 146.697 220.424 152.257 226.044C125.639 227.691 117.323 250.382 100.581 255.465C98.7383 256.571 128.731 276.902 162.075 238.529C159.599 255.477 161.489 264.603 171.425 280.036C184.045 262.925 187.062 253.338 180.96 236.215C196.71 241.769 214.326 244.039 223.682 242.39C231.068 241.087 239.727 236.802 246.912 230.17C246.912 230.17 233.908 228.402 219.311 223.36C204.713 218.318 190.115 221.907 190.115 221.907C191.65 219.098 197.339 215.658 200.485 214.494C210.971 210.614 220.531 195.728 218.679 182.346C211.814 186.603 202.939 189.27 195.101 192.596C188.96 195.202 178.391 202.71 173.519 214.172C170.106 194.855 172.526 183.311 181.086 162.066Z" fill="#7E1701"/>
</g>
<path d="M509.951 287.9L502.902 280.357C500.955 278.273 497.686 278.159 495.599 280.102L491.822 283.617L482.82 273.983C484.877 267.184 483.441 259.527 478.236 253.957L464.142 238.873C444.681 218.046 411.986 216.904 391.117 236.323L419.817 251.916L419.606 257.955C419.416 263.421 421.408 268.74 425.149 272.74L440.454 289.12C445.659 294.69 453.213 296.653 460.153 295.08L469.155 304.714L465.378 308.229C463.291 310.171 463.177 313.434 465.123 315.517L472.172 323.061C474.119 325.144 477.388 325.258 479.475 323.316L509.703 295.185C511.784 293.246 511.897 289.983 509.951 287.9ZM417.591 279.773C416.438 278.54 415.471 277.187 414.546 275.814L329.541 349.645C321.021 357.048 320.345 370.023 328.048 378.27C335.75 386.516 348.77 386.748 356.764 378.779L436.483 299.313C435.238 298.331 433.999 297.334 432.897 296.154L417.591 279.773Z" fill="#7E1701"/>
<path d="M257.721 204.447L252.507 171.531C249.707 154.082 241.769 137.865 229.706 124.95C217.644 112.035 202.005 103.01 184.787 99.0272L194.171 158.276L183.199 160.014L169.297 72.2377L125.409 79.1889L139.311 166.965L128.339 168.703L118.955 109.454C103.811 118.562 91.7266 131.978 84.2453 147.989C76.7639 163.999 74.2257 181.876 76.9548 199.336L82.1682 232.252L60.2242 235.728L63.6998 257.672L283.14 222.916L279.665 200.972L257.721 204.447Z" fill="#F39A13"/>
<defs>
<clipPath id="clip0_1835_665">
<rect width="309" height="309" fill="white" transform="translate(0 171.657) rotate(-10)"/>
</clipPath>
</defs>
</svg>
