<svg width="332" height="332" viewBox="0 0 332 332" fill="none" xmlns="http://www.w3.org/2000/svg">
<g clip-path="url(#clip0_1553_612)">
<circle cx="166" cy="166" r="161" fill="white" stroke="#7C0B0B" stroke-width="10"/>
<path fill-rule="evenodd" clip-rule="evenodd" d="M116.906 74.9995C87.406 74.9999 26.1343 106.508 41.4061 191.008C56.678 275.507 107.406 296.508 166.405 298.499C207.906 298.499 275.406 282.008 291.406 194.508C305.563 117.088 257.906 80.5078 227.406 77.0078L214.906 90.0078C236.842 102.037 246.723 105.499 260 103C257.44 113.884 245.406 121.008 233.906 124.508C222.406 128.008 206.3 126.303 187.906 117.508C183.44 134.088 177.119 143.193 160 159C153 146 149 137.5 149 119.5C130.088 128.888 119.377 132.029 102.906 124.508C90.7174 118.942 82.9061 109.508 79.4061 99.5078C79.4061 99.5078 82.5 103.5 93.5 103.5C98.1655 103.5 106 100.68 111.5 97C118.973 92 128.5 87.5 128.5 87.5C128.5 87.5 120.5 77.5 116.906 74.9995ZM264 141.001C271 143.001 273.058 150.569 274.5 158.501C275.5 164.001 275.307 172.957 274.5 176.997C274.317 177.915 274.15 178.866 273.979 179.845L273.978 179.846C273.215 184.203 272.358 189.102 269.5 194.001C265.935 200.112 262.784 204.361 257.5 206.497C255.016 207.501 251.459 201.084 254.5 195.001C257.5 189.001 256.923 167.504 254.5 157C252.077 146.496 258.683 139.482 264 141.001ZM246.5 216.997C240 221.585 241.53 230.819 248 231.997C253.5 232.997 259 224.997 257.5 219.997C256.176 215.582 254.304 211.488 246.5 216.997Z" fill="#7E1701"/>
<path d="M192.001 33H178.501C168 44 165 59 166 83C148.5 61.5 136 68 120 58C125.5 89.5 148 84.5 152.5 91C126 88 113.87 108.902 96.5 111C94.4931 111.77 120.499 137 160 105C154.62 121.26 154.896 130.576 162.001 147.5C177.401 132.841 182.036 123.923 179.001 106C193.547 114.205 210.501 119.5 220.001 119.5C227.501 119.5 236.772 116.783 245.001 111.5C245.001 111.5 232.501 107.5 219.001 100C205.501 92.5 190.501 93.5 190.501 93.5C192.501 91 198.701 88.6 202.001 88C213.001 86 225.001 73 225.501 59.5C218.001 62.5 208.797 63.5854 200.501 65.5C194.001 67 182.288 72.5588 175.501 83C175.493 63.3838 179.881 52.4361 192.001 33Z" fill="#7E1701"/>
</g>
<defs>
<clipPath id="clip0_1553_612">
<rect width="332" height="332" fill="white"/>
</clipPath>
</defs>
</svg>
